<?xml version="1.0" standalone="no"?>
<!DOCTYPE svg PUBLIC "-//W3C//DTD SVG 20010904//EN"
 "http://www.w3.org/TR/2001/REC-SVG-20010904/DTD/svg10.dtd">
<svg version="1.0" xmlns="http://www.w3.org/2000/svg"
 width="466.000000pt" height="486.000000pt" viewBox="0 0 466.000000 486.000000"
 preserveAspectRatio="xMidYMid meet">
<metadata>
Created by potrace 1.16, written by Peter Selinger 2001-2019
</metadata>
<g transform="translate(0.000000,486.000000) scale(0.100000,-0.100000)"
fill="#000000" stroke="none">
<path d="M1845 4714 c-146 -31 -297 -111 -412 -218 -119 -111 -207 -251 -255
-408 -22 -72 -22 -80 -25 -788 l-3 -715 285 -165 c157 -91 290 -166 295 -168
6 -2 10 245 10 680 l0 683 545 314 545 315 -26 45 c-67 116 -192 246 -297 309
-85 51 -204 99 -289 116 -96 20 -279 20 -373 0z"/>
<path d="M3275 4280 c-94 -15 -193 -48 -285 -96 -47 -24 -317 -178 -600 -342
l-515 -298 -6 -339 c-3 -187 -5 -341 -3 -343 1 -2 268 150 593 337 l592 340
539 -311 c296 -171 542 -311 546 -312 16 -2 73 109 102 198 79 237 63 458 -47
681 -57 115 -132 211 -229 291 -82 68 -240 148 -347 174 -93 24 -254 33 -340
20z"/>
<path d="M772 3754 c-163 -35 -302 -114 -432 -244 -177 -177 -260 -376 -260
-624 0 -307 144 -574 400 -741 36 -24 305 -181 598 -350 l532 -307 296 170
295 170 -83 49 c-46 27 -311 181 -590 342 l-508 294 0 629 0 628 -92 -1 c-51
-1 -121 -7 -156 -15z"/>
<path d="M2760 3225 c-157 -91 -286 -168 -287 -172 -2 -5 9 -15 25 -24 15 -8
278 -161 585 -338 l557 -323 0 -629 0 -629 84 0 c226 0 452 102 617 278 160
172 239 371 239 606 0 305 -144 574 -396 739 -70 46 -1103 644 -1126 652 -7 2
-141 -70 -298 -160z"/>
<path d="M2920 1947 l0 -682 -545 -314 -544 -314 27 -50 c74 -135 225 -274
377 -347 134 -65 196 -81 351 -87 155 -7 257 10 377 62 128 55 187 95 287 195
100 100 141 159 195 287 64 150 65 158 65 915 l0 683 -289 168 c-159 92 -292
167 -295 167 -3 0 -6 -307 -6 -683z"/>
<path d="M2755 2000 c-16 -10 -281 -162 -587 -339 l-558 -320 -512 296 c-282
162 -527 304 -545 315 l-32 19 -28 -43 c-41 -65 -91 -205 -109 -310 -31 -176
-2 -357 85 -533 88 -178 218 -308 396 -396 146 -72 230 -92 395 -92 155 0 244
19 368 78 79 37 1129 640 1148 659 12 11 26 687 15 685 -3 0 -19 -9 -36 -19z"/>
</g>
</svg>
